# xmcd
#
# Track frame offsets: 
#        150
#        26876
#        79346
#        155860
#        182933
#        203010
#        217230
#        274543
#
# Disc length: 4437 seconds
#
# Revision: 0
# Processed by: cddbd v1.5.2PL0 Copyright (c) Steve Scherf et al.
# Submitted via: ExactAudioCopy v0.95b4
#
DISCID=79115308
DTITLE=Alcorn, Susan and Eugene Chadbourne - Afternoon in Austin
DYEAR=2002
DGENRE=Avantgarde
TTITLE0=How I Love Them Old Songs
TTITLE1=If We Make It Through December
TTITLE2=Albourne
TTITLE3=I Dreamt I Was Young Again
TTITLE4=I Got Caught
TTITLE5=I've Lived My Life
TTITLE6=Sugene
TTITLE7=Hello Stranger
EXTD=
EXTT0=
EXTT1=
EXTT2=
EXTT3=
EXTT4=
EXTT5=
EXTT6=
EXTT7=
PLAYORDER=
